# AST/ASF file generated using VICON BodyLanguage
# -----------------------------------------------
:version 1.10
:name VICON
:units
  mass 1.0
  length 0.45
  angle deg
:documentation
   .ast/.asf automatically generated from VICON data using
   VICON BodyBuilder and BodyLanguage model FoxedUp or BRILLIANT.MOD
:root
   order TX TY TZ RX RY RZ
   axis XYZ
   position 0 0 0  
   orientation 0 0 0 
:bonedata
  begin
     id 1 
     name lhipjoint
     direction 0.570549 -0.739093 0.358072 
     length 2.41801 
     axis 0 0 0  XYZ
  end
  begin
     id 2 
     name lfemur
     direction 0.34202 -0.939693 0  
     length 7.44434  
     axis 0 0 20  XYZ
    dof rx ry rz
    limits (-160.0 20.0)
           (-70.0 70.0)
           (-60.0 70.0)
  end
  begin
     id 3 
     name ltibia
     direction 0.34202 -0.939693 0   
     length 7.60047   
     axis 0 0 20   XYZ
    dof rx
    limits (-10.0 170.0)
  end
  begin
     id 4 
     name lfoot
     direction 0.0909041 -0.249757 0.964032   
     length 2.03437   
     axis -90 7.62852e-016 20   XYZ
    dof rx rz
    limits (-45.0 90.0)
           (-70.0 20.0)
  end
  begin
     id 5 
     name ltoes
     direction 1.53547e-011 -4.2174e-011 1   
     length 1.02054   
     axis -90 7.62852e-016 20   XYZ
    dof rx
    limits (-90.0 20.0)
  end
  begin
     id 6 
     name rhipjoint
     direction -0.558096 -0.746754 0.361784   
     length 2.3932  
     axis 0 0 0  XYZ 
  end
  begin
     id 7 
     name rfemur
     direction -0.34202 -0.939693 0   
     length 7.3886   
     axis 0 0 -20   XYZ
    dof rx ry rz
    limits (-160.0 20.0)
           (-70.0 70.0)
           (-70.0 60.0)
  end
  begin
     id 8 
     name rtibia
     direction -0.34202 -0.939693 0   
     length 7.4839   
     axis 0 0 -20   XYZ
    dof rx
    limits (-10.0 170.0)
 end
 begin
     id 9 
     name rfoot
     direction -0.114619 -0.314914 0.942174   
     length 2.25127  
     axis -90 -7.62852e-016 -20   XYZ
    dof rx rz
    limits (-45.0 90.0)
           (-20.0 70.0)
  end
  begin
     id 10 
     name rtoes
     direction -1.53518e-011 -4.21881e-011 1   
     length 1.11821   
     axis -90 -7.62852e-016 -20   XYZ
    dof rx
    limits (-90.0 20.0)
  end
  begin
     id 11 
     name lowerback
     direction -0.00902269 0.996426 -0.0839821   
     length 2.25052   
     axis 0 0 0   XYZ
    dof rx ry rz
    limits (-20.0 45.0)
           (-30.0 30.0)
           (-30.0 30.0)
  end
  begin
     id 12 
     name upperback
     direction 0.0370973 0.999169 -0.0168941   
     length 2.24876   
     axis 0 0 0   XYZ
    dof rx ry rz
    limits (-20.0 45.0)
           (-30.0 30.0)
           (-30.0 30.0)
  end
  begin
     id 13 
     name thorax
     direction 0.0402726 0.998931 0.0227027   
     length 2.26408   
     axis 0 0 0   XYZ
    dof rx ry rz
    limits (-20.0 45.0)
           (-30.0 30.0)
           (-30.0 30.0)
  end
  begin
     id 14 
     name lowerneck
     direction -0.0733697 0.98508 0.155675   
     length 1.58204   
     axis 0 0 0   XYZ
    dof rx ry rz
    limits (-20.0 45.0)
           (-30.0 30.0)
           (-30.0 30.0)
  end
  begin
     id 15 
     name upperneck
     direction 0.0426554 0.993501 -0.105526   
     length 1.61222   
     axis 0 0 0   XYZ
    dof rx ry rz
    limits (-20.0 45.0)
           (-30.0 30.0)
           (-30.0 30.0)
  end
  begin
     id 16
     name head
     direction 0.020792 0.998384 -0.0528868  
     length 1.61527  
     axis 0 0 0   XYZ
    dof rx ry rz
    limits (-20.0 45.0)
           (-30.0 30.0)
           (-30.0 30.0)
  end
  begin
     id 17 
     name lclavicle
     direction 0.967109 0.155462 -0.201325  
     length 3.59357  
     axis 0 0 0   XYZ
    dof ry rz
    limits (-20.0 10.0)
           (0.0 20.0)
  end
  begin
     id 18 
     name lhumerus
     direction 1 -4.48968e-011 2.38195e-027   
     length 5.38154   
     axis 180 -30 -90   XYZ
    dof rx ry rz
    limits (-60.0 90.0)
           (-90.0 90.0)
           (-90.0 90.0)
  end
  begin
     id 19
     name lradius
     direction 1 -4.48961e-011 4.85371e-027   
     length 3.33312   
     axis 180 -30 -90   XYZ
    dof rx
    limits (-10.0 170.0)
  end
  begin
     id 20
     name lwrist
     direction 1 -4.48961e-011 4.76515e-027   
     length 1.66656   
     axis -3.27502e-015 90 90   XYZ
    dof ry
    limits (-180.0 0.0)
 end
  begin
     id 21 
     name lhand
     direction 1 -4.48951e-011 9.53074e-027   
     length 0.710789   
     axis -6.08098e-015 90 90   XYZ
    dof rx rz
    limits (-90.0 90.0)
           (-45.0 45.0)
  end
  begin
     id 22 
     name lfingers
     direction 1 -4.48953e-011 1.90613e-026   
     length 0.573057   
     axis -1.21619e-014 90 90   XYZ
    dof rx
    limits (0.0 90.0)
  end
  begin
     id 23
     name lthumb
     direction 0.707107 -6.34973e-011 0.707107   
     length 0.822798   
     axis -90 45 -9.86923e-015   XYZ
    dof rx rz
    limits (-45.0 45.0)
           (-45.0 45.0)
  end
  begin
     id 24 
     name rclavicle
     direction -0.9585 0.265289 -0.104398   
     length 3.42039  
     axis 0 0 0   XYZ 
    dof ry rz
    limits (-10.0 20.0)
           (-20.0 0.0)
  end
  begin
     id 25 
     name rhumerus
     direction -1 -4.48977e-011 2.21478e-027  
     length 5.16954   
     axis 180 30 90   XYZ
    dof rx ry rz
    limits (-90.0 60.0)
           (-90.0 90.0)
           (-90.0 90.0)
  end
  begin
     id 26 
     name rradius
     direction -1 -4.48967e-011 5.63677e-027   
     length 3.38287   
     axis 180 30 90   XYZ
    dof rx
    limits (-10.0 170.0)
  end
  begin
     id 27 
     name rwrist
     direction -1 -4.48967e-011 4.76501e-027   
     length 1.69144   
     axis -3.27502e-015 -90 -90   XYZ
    dof ry
    limits (-180.0 0.0)
  end
  begin
     id 28
     name rhand
     direction -1 -4.48902e-011 9.53292e-027   
     length 0.817967   
     axis -6.08098e-015 -90 -90   XYZ
    dof rx rz
    limits (-90.0 90.0)
           (-45.0 45.0)
  end
  begin
     id 29
     name rfingers
     direction -1 -4.49012e-011 1.90561e-026   
     length 0.659466   
     axis -1.21619e-014 -90 -90   XYZ
    dof rx
    limits (0.0 90.0)
  end
  begin
     id 30
     name rthumb
     direction -0.707107 -6.34944e-011 0.707107   
     length 0.946865   
     axis -90 -45 9.86923e-015   XYZ
    dof rx rz
    limits (-45.0 45.0)
           (-45.0 45.0)
  end
:hierarchy
  begin
    root lhipjoint rhipjoint lowerback
    lhipjoint lfemur
    lfemur ltibia
    ltibia lfoot
    lfoot ltoes
    rhipjoint rfemur
    rfemur rtibia
    rtibia rfoot
    rfoot rtoes
    lowerback upperback
    upperback thorax
    thorax lowerneck lclavicle rclavicle
    lowerneck upperneck
    upperneck head
    lclavicle lhumerus
    lhumerus lradius
    lradius lwrist
    lwrist lhand lthumb
    lhand lfingers
    rclavicle rhumerus
    rhumerus rradius
    rradius rwrist
    rwrist rhand rthumb
    rhand rfingers
  end

#!OML:ASF F:\twosubjects\two\wednesday\Session 1\Justin1.ASF
:FULLY-SPECIFIED
:DEGREES
143
root 13.9477 15.6822 -17.2179 -350.808 -8.97699 -357.65
lowerback 8.17806 1.92412 3.71297
upperback 3.15755 2.81321 -0.715599
thorax -1.09339 1.42712 -3.07016
lowerneck -12.436 -7.47163 -18.7419
upperneck 9.95807 -8.84032 15.5716
head 6.63563 -3.97674 7.26751
rclavicle -1.98785e-015 -1.19271e-014
rhumerus -27.9393 15.1355 -29.2788
rradius 104.634
rwrist -72.1155
rhand -15.2186 8.04847
rfingers 7.12502
rthumb 10.9539 -21.6458
lclavicle -1.98785e-015 -1.19271e-014
lhumerus -50.3651 24.988 12.4446
lradius 27.2401
lwrist -8.06667
lhand -9.96087 52.4476
lfingers 7.12502
lthumb 16.0213 81.8051
rfemur 21.8956 4.49291 33.3127
rtibia 7.58506
rfoot -17.3009 -4.84358
rtoes 2.83599
lfemur -52.1087 3.70685 -2.56686
ltibia 41.2069
lfoot -1.34949 -22.7029
ltoes -32.727
144
root 14.0591 15.5361 -17.0476 -350.96 -9.86553 -357.9
lowerback 7.98961 1.66444 4.29792
upperback 3.28983 2.50305 -0.627443
thorax -0.853679 1.28338 -3.27124
lowerneck -12.5874 -7.42674 -18.2316
upperneck 10.395 -8.69717 14.3334
head 6.6847 -3.96556 6.77047
rclavicle 9.34288e-015 2.78299e-014
rhumerus -27.4537 15.1545 -29.2768
rradius 104.185
rwrist -72.1291
rhand -15.2447 8.45987
rfingers 7.12502
rthumb 10.9287 -21.2357
lclavicle 9.34288e-015 2.78299e-014
lhumerus -50.1913 26.8882 11.2254
lradius 27.0191
lwrist -8.76847
lhand -10.5515 53.4065
lfingers 7.12502
lthumb 15.4525 82.8088
rfemur 23.139 4.93943 32.8437
rtibia 7.30617
rfoot -19.2657 -4.24466
rtoes 1.51011
lfemur -52.523 4.08055 -2.9011
ltibia 43.3231
lfoot 0.208798 -24.5002
ltoes -26.1447
145
root 14.1603 15.4051 -16.8719 -351.042 -10.8689 -357.803
lowerback 7.79064 1.42462 4.59401
upperback 3.24596 2.19628 -0.737761
thorax -0.798936 1.13402 -3.52202
lowerneck -12.6817 -7.18694 -17.404
upperneck 10.8074 -8.36744 13.2007
head 6.68218 -3.84967 6.28753
rclavicle -1.05356e-014 -4.77083e-015
rhumerus -27.1888 15.3978 -29.4956
rradius 103.364
rwrist -72.3406
rhand -14.98 9.48818
rfingers 7.12502
rthumb 11.184 -20.1937
lclavicle -1.05356e-014 -4.77083e-015
lhumerus -50.241 27.9734 10.1269
lradius 27.2123
lwrist -8.60958
lhand -11.0165 53.999
lfingers 7.12502
lthumb 15.0046 83.4354
rfemur 24.243 5.47747 32.0326
rtibia 7.00256
rfoot -20.6797 -4.03583
rtoes -0.77682
lfemur -52.9152 4.43164 -3.65982
ltibia 45.6322
lfoot 0.644679 -26.2924
ltoes -13.8755
146
root 14.248 15.2822 -16.7131 -351.027 -11.7471 -357.862
lowerback 7.74154 1.28109 4.92694
upperback 3.06107 2.03331 -0.623425
thorax -0.970071 1.04618 -3.58045
lowerneck -12.323 -7.09975 -17.3679
upperneck 10.9047 -8.18175 12.2874
head 6.57749 -3.83484 5.99909
rclavicle -4.4329e-014 -7.95139e-016
rhumerus -27.0064 16.1594 -29.044
rradius 103.429
rwrist -73.1709
rhand -15.7384 9.64082
rfingers 7.12502
rthumb 10.4525 -20.0793
lclavicle -4.4329e-014 -7.95139e-016
lhumerus -49.991 28.2525 10.1697
lradius 27.7049
lwrist -7.47477
lhand -11.3648 54.9643
lfingers 7.12502
lthumb 14.6691 84.4254
rfemur 24.9361 5.89155 31.4998
rtibia 7.11432
rfoot -21.7847 -4.14718
rtoes -2.60099
lfemur -53.2938 4.89777 -4.25735
ltibia 47.9789
lfoot -1.77835 -27.6561
ltoes -5.90794
147
root 14.3285 15.1832 -16.5459 -351.112 -12.5767 -357.735
lowerback 7.72142 1.17731 5.0774
upperback 2.90918 1.9108 -0.531647
thorax -1.12613 0.978049 -3.56267
lowerneck -12.1361 -6.9938 -17.9062
upperneck 11.1421 -7.93531 11.9635
head 6.59121 -3.77024 6.01167
rclavicle 3.81667e-014 6.36111e-015
rhumerus -27.1436 16.7167 -28.6125
rradius 103.247
rwrist -73.4734
rhand -16.0704 9.7109
rfingers 7.12502
rthumb 10.1323 -20.0251
lclavicle 3.81667e-014 6.36111e-015
lhumerus -49.4739 28.4357 10.617
lradius 28.0446
lwrist -5.91953
lhand -11.5757 54.6317
lfingers 7.12502
lthumb 14.4658 84.1075
rfemur 25.191 6.21976 30.7876
rtibia 8.27841
rfoot -23.0956 -4.20652
rtoes -2.68099
lfemur -53.393 5.08754 -4.8249
ltibia 50.3167
lfoot -7.50956 -26.8587
ltoes -12.2692
148
root 14.403 15.1089 -16.3773 -351.317 -13.337 -357.147
lowerback 7.86492 0.890859 4.63875
upperback 2.70858 1.51141 -0.519626
thorax -1.46637 0.764295 -3.27821
lowerneck -12.6527 -6.75516 -18.1395
upperneck 11.8973 -7.44804 11.5169
head 6.83547 -3.57371 5.95433
rclavicle -2.04748e-014 1.03368e-014
rhumerus -26.9906 17.4553 -28.3582
rradius 102.926
rwrist -73.5014
rhand -16.1678 10.1118
rfingers 7.12502
rthumb 10.0383 -19.6288
lclavicle -2.04748e-014 1.03368e-014
lhumerus -49.2118 28.8858 10.7063
lradius 28.086
lwrist -4.18812
lhand -12.0129 53.6525
lfingers 7.12502
lthumb 14.0446 83.158
rfemur 25.0642 6.42818 29.5912
rtibia 10.1261
rfoot -24.2612 -4.33257
rtoes -3.84292
lfemur -53.4803 4.82566 -5.5829
ltibia 52.5975
lfoot -12.6057 -24.3306
ltoes -21.6217
149
root 14.463 15.0359 -16.2123 -351.568 -14.2469 -356.758
lowerback 8.09073 0.645554 4.04216
upperback 2.56655 1.15917 -0.269634
thorax -1.78971 0.576726 -2.65929
lowerneck -13.1192 -6.64048 -18.2273
upperneck 12.3712 -7.07183 10.6428
head 6.98013 -3.4574 5.71007
rclavicle 1.59028e-015 1.74931e-014
rhumerus -26.4978 18.074 -27.8675
rradius 102.55
rwrist -73.7029
rhand -16.1866 9.95331
rfingers 7.12502
rthumb 10.0201 -19.7882
lclavicle 1.59028e-015 1.74931e-014
lhumerus -48.997 28.2977 12.004
lradius 28.9168
lwrist -1.12836
lhand -12.1849 54.28
lfingers 7.12502
lthumb 13.8788 83.7969
rfemur 24.8205 6.56064 28.572
rtibia 12.3382
rfoot -25.255 -4.38895
rtoes -6.61106
lfemur -53.6961 4.68186 -5.91786
ltibia 54.8501
lfoot -14.4582 -23.4107
ltoes -22.1806
150
root 14.5109 14.9536 -16.0463 -351.8 -15.1214 -356.561
lowerback 8.18312 0.509536 3.62311
upperback 2.53387 0.955468 -0.0223236
thorax -1.90252 0.471519 -2.1508
lowerneck -13.226 -6.60387 -18.1654
upperneck 12.4001 -6.87344 9.77524
head 6.94492 -3.42297 5.4237
rclavicle -3.37934e-015 -1.74931e-014
rhumerus -26.2725 18.2349 -27.588
rradius 102.021
rwrist -73.7457
rhand -16.1699 8.94821
rfingers 7.12502
rthumb 10.0363 -20.7925
lclavicle -3.37934e-015 -1.74931e-014
lhumerus -48.7537 27.8926 13.4492
lradius 29.875
lwrist 1.35236
lhand -11.3654 53.4969
lfingers 7.12502
lthumb 14.6685 82.958
rfemur 24.4503 7.17259 28.0465
rtibia 15.0198
rfoot -26.223 -4.61859
rtoes -8.11469
lfemur -54.0441 4.64324 -5.98242
ltibia 57.0084
lfoot -14.2822 -24.5032
ltoes -15.6786
151
root 14.5501 14.8822 -15.8745 -351.972 -15.9004 -356.521
lowerback 8.36446 0.293303 3.51728
upperback 2.34018 0.675004 0.0968503
thorax -2.22422 0.323532 -1.94487
lowerneck -13.1061 -6.4096 -17.6322
upperneck 12.3861 -6.55808 8.66172
head 6.81772 -3.33433 4.99876
rclavicle -1.25234e-014 -3.02153e-014
rhumerus -26.2845 18.5362 -27.7198
rradius 101.437
rwrist -73.4642
rhand -11.9366 10.2605
rfingers 7.12502
rthumb 14.1181 -19.2398
lclavicle -1.25234e-014 -3.02153e-014
lhumerus -48.2806 27.8311 14.2121
lradius 29.8605
lwrist 2.86527
lhand -10.5934 51.9877
lfingers 7.12502
lthumb 15.4122 81.3932
rfemur 23.6307 7.89715 27.753
rtibia 18.3929
rfoot -26.9597 -4.547
rtoes -8.8127
lfemur -54.3056 4.70782 -6.01601
ltibia 58.9631
lfoot -15.1031 -24.7967
ltoes -15.0355
152
root 14.576 14.8384 -15.7057 -351.857 -16.6873 -357.106
lowerback 8.09373 0.0880441 4.17908
upperback 2.3867 0.447091 0.263513
thorax -2.03439 0.212807 -2.11927
lowerneck -13.0044 -6.25743 -17.446
upperneck 12.0021 -6.28467 7.9686
head 6.61135 -3.23891 4.76602
rclavicle 4.17448e-014 -1.43125e-014
rhumerus -26.3215 18.5116 -27.9037
rradius 101.076
rwrist -73.2
rhand -12.9875 9.87478
rfingers 7.12502
rthumb 13.1053 -19.6934
lclavicle 4.17448e-014 -1.43125e-014
lhumerus -47.1953 27.8205 15.4132
lradius 29.7637
lwrist 4.44919
lhand -10.1295 51.9269
lfingers 7.12502
lthumb 15.859 81.2974
rfemur 22.4999 8.92935 28.235
rtibia 21.8394
rfoot -26.9804 -4.39681
rtoes -8.90366
lfemur -54.4581 5.05096 -5.47795
ltibia 60.6439
lfoot -17.6579 -23.4237
ltoes -22.6948
153
root 14.596 14.7952 -15.5649 -351.556 -17.3497 -358.029
lowerback 8.09687 -0.0786824 4.79126
upperback 2.44868 0.284142 0.776653
thorax -1.98128 0.131664 -1.91618
lowerneck -13.6506 -6.26457 -17.9647
upperneck 12.0811 -6.02735 7.69953
head 6.72265 -3.1486 4.77469
rclavicle 9.93923e-016 7.15625e-015
rhumerus -26.1482 18.4388 -27.7741
rradius 100.616
rwrist -72.7978
rhand -12.3201 11.8498
rfingers 7.12502
rthumb 13.7485 -17.676
lclavicle 9.93923e-016 7.15625e-015
lhumerus -46.2198 28.0692 17.15
lradius 29.9797
lwrist 5.58274
lhand -9.46313 51.6563
lfingers 7.12502
lthumb 16.5006 80.9747
rfemur 21.1043 10.0979 29.2618
rtibia 25.4732
rfoot -26.1872 -4.66687
rtoes -9.50229
lfemur -54.4479 5.31986 -4.46948
ltibia 61.9079
lfoot -19.6426 -22.4704
ltoes -26.6809
154
root 14.6159 14.7674 -15.3481 -352.795 -18.4682 -356.181
lowerback 8.04642 -0.210442 2.96263
upperback 2.83591 -0.0560432 0.442793
thorax -1.57903 -0.027164 -1.20243
lowerneck -14.3956 -6.19043 -17.8678
upperneck 12.1609 -5.71281 7.11977
head 6.81338 -3.02694 4.58784
rclavicle 4.94974e-014 -3.65764e-014
rhumerus -25.5975 18.3814 -27.9559
rradius 99.7486
rwrist -72.1334
rhand -12.4757 11.4994
rfingers 7.12502
rthumb 13.5985 -18.0364
lclavicle 4.94974e-014 -3.65764e-014
lhumerus -45.5898 28.0564 18.8007
lradius 30.5715
lwrist 6.77955
lhand -9.121 51.5195
lfingers 7.12502
lthumb 16.83 80.8101
rfemur 20.709 10.4946 26.7874
rtibia 29.3441
rfoot -25.1111 -4.07943
rtoes -11.1581
lfemur -52.7566 4.80095 -6.41682
ltibia 62.8127
lfoot -20.8666 -21.8644
ltoes -25.0571
155
root 14.6239 14.7751 -15.1613 -353.402 -19.5164 -355.234
lowerback 8.20345 -0.387291 2.0566
upperback 2.80418 -0.361981 0.167888
thorax -1.70944 -0.18265 -0.947838
lowerneck -14.7052 -6.0185 -17.1523
upperneck 12.2754 -5.44623 6.29301
head 6.82441 -2.93066 4.22436
rclavicle -3.93594e-014 2.06736e-014
rhumerus -25.5002 18.4915 -28.4088
rradius 99.1864
rwrist -71.8063
rhand -12.1772 10.8306
rfingers 7.12502
rthumb 13.8862 -18.6858
lclavicle -3.93594e-014 2.06736e-014
lhumerus -45.0661 27.6956 20.101
lradius 31.2898
lwrist 7.71904
lhand -8.38495 50.1175
lfingers 7.12502
lthumb 17.5384 79.3464
rfemur 19.3835 11.251 25.3648
rtibia 33.5389
rfoot -22.9239 -2.99581
rtoes -10.5267
lfemur -51.6064 4.74225 -7.46643
ltibia 63.4553
lfoot -21.2443 -21.1109
ltoes -22.7973
